<svg width="717" height="528" viewBox="0 0 717 528" fill="none" xmlns="http://www.w3.org/2000/svg">
<path d="M700.82 524.965V525.742C700.82 526.983 700.486 528.004 700.08 528.004H49.5105C49.1052 528.004 48.7715 526.982 48.7715 525.742V524.965C48.7715 523.723 49.1049 522.703 49.5105 522.703H700.08C700.486 522.702 700.82 523.723 700.82 524.965Z" fill="#1D194A"/>
<path d="M658.076 522.431C658.076 522.431 795.512 311.505 649.6 253.816C612.847 239.286 600.026 35.8516 436.776 137.569C371.847 178.02 278.356 129.069 188.836 155.824C106.617 180.402 104.727 251.277 115.122 276.793C126.482 304.676 81.1852 338.01 34.7954 360.904C-37.9726 396.818 15.5367 523.03 84.2808 523.634C153.025 524.238 658.076 522.431 658.076 522.431Z" fill="#EBF3FA"/>
<circle cx="506.029" cy="411.666" r="13.0174" fill="#73EAC0"/>
<circle cx="365.064" cy="28.9001" r="28.9001" fill="#F7B41B"/>
<g filter="url(#filter0_d_22210_17053)">
<path d="M591.282 29.5547H314.891V410.785H591.282V29.5547Z" fill="white"/>
<path d="M319.891 405.785V34.5547H586.282V405.785H319.891Z" stroke="#739AF0" stroke-width="10"/>
</g>
<path d="M403.261 312.02C403.423 302.478 395.788 294.585 386.245 294.432C376.702 294.27 368.809 301.905 368.656 311.448C368.495 320.991 376.129 328.884 385.673 329.037C395.207 329.197 403.1 321.563 403.261 312.02ZM385.714 326.398C377.633 326.263 371.16 319.58 371.295 311.49C371.43 303.408 378.113 296.935 386.203 297.071C394.285 297.205 400.758 303.889 400.622 311.979C400.488 320.06 393.796 326.532 385.714 326.398Z" fill="#B5CEFF"/>
<path d="M386.148 299.741C379.534 299.634 374.063 304.923 373.957 311.536C373.85 318.15 379.139 323.621 385.752 323.727C392.366 323.834 397.837 318.545 397.943 311.932C398.05 305.318 392.752 299.854 386.148 299.741ZM376.085 311.571C376.177 306.136 380.67 301.784 386.104 301.876C391.539 301.967 395.891 306.46 395.799 311.895C395.708 317.33 391.215 321.682 385.78 321.59C380.344 321.506 376.001 317.007 376.085 311.571Z" fill="#B5CEFF"/>
<path d="M391.906 308.365L380.162 308.172L380.121 310.655L391.865 310.848L391.906 308.365Z" fill="#B5CEFF"/>
<path d="M391.828 313.021L380.084 312.828L380.043 315.311L391.787 315.504L391.828 313.021Z" fill="#B5CEFF"/>
<path d="M535.186 362.48L523.657 356.07L512.109 362.48V335.055H535.186V362.48Z" fill="#3342A1"/>
<path d="M524.833 285.195L526.879 287.969C527.108 288.282 527.451 288.492 527.834 288.553C528.217 288.614 528.609 288.521 528.923 288.294L531.725 286.286C531.913 286.151 532.129 286.062 532.358 286.026C532.586 285.99 532.82 286.009 533.04 286.081C533.259 286.152 533.459 286.275 533.623 286.438C533.786 286.601 533.909 286.801 533.981 287.021L535.068 290.291C535.189 290.66 535.45 290.965 535.796 291.141C536.142 291.318 536.543 291.35 536.912 291.231L540.197 290.188C540.417 290.117 540.651 290.099 540.879 290.136C541.107 290.172 541.324 290.262 541.511 290.398C541.698 290.534 541.85 290.712 541.956 290.917C542.061 291.123 542.116 291.351 542.117 291.582L542.14 295.029C542.14 295.418 542.295 295.792 542.57 296.067C542.846 296.343 543.219 296.497 543.609 296.497L547.055 296.521C547.285 296.523 547.511 296.578 547.715 296.683C547.919 296.788 548.096 296.939 548.232 297.124C548.367 297.31 548.457 297.524 548.494 297.751C548.531 297.977 548.515 298.209 548.446 298.429L547.404 301.714C547.285 302.083 547.318 302.484 547.494 302.829C547.67 303.174 547.975 303.436 548.343 303.557L551.614 304.645C551.834 304.717 552.033 304.839 552.197 305.003C552.36 305.167 552.483 305.366 552.554 305.586C552.626 305.806 552.644 306.04 552.608 306.268C552.573 306.497 552.484 306.713 552.348 306.901L550.341 309.703C550.114 310.017 550.02 310.408 550.081 310.791C550.141 311.174 550.351 311.518 550.664 311.747L553.439 313.791C553.626 313.927 553.778 314.106 553.883 314.312C553.988 314.518 554.043 314.746 554.043 314.978C554.043 315.209 553.988 315.437 553.883 315.643C553.778 315.85 553.626 316.028 553.439 316.164L550.664 318.209C550.351 318.438 550.141 318.781 550.081 319.164C550.02 319.547 550.114 319.938 550.341 320.253L552.348 323.055C552.484 323.242 552.573 323.459 552.609 323.688C552.645 323.916 552.627 324.15 552.555 324.37C552.483 324.59 552.361 324.79 552.197 324.954C552.034 325.118 551.834 325.24 551.614 325.312L548.342 326.399C547.974 326.52 547.668 326.782 547.493 327.128C547.317 327.473 547.285 327.874 547.404 328.243L548.446 331.529C548.517 331.749 548.535 331.982 548.499 332.21C548.462 332.439 548.373 332.655 548.237 332.842C548.101 333.029 547.923 333.182 547.717 333.287C547.511 333.392 547.284 333.447 547.053 333.448L543.604 333.471C543.215 333.471 542.841 333.626 542.566 333.902C542.291 334.177 542.136 334.55 542.136 334.94L542.112 338.387C542.112 338.618 542.057 338.846 541.952 339.052C541.847 339.258 541.694 339.436 541.507 339.572C541.32 339.708 541.104 339.798 540.875 339.834C540.647 339.871 540.413 339.853 540.193 339.782L536.908 338.739C536.538 338.621 536.137 338.653 535.792 338.829C535.446 339.005 535.184 339.311 535.063 339.679L533.976 342.95C533.905 343.169 533.782 343.369 533.618 343.532C533.455 343.696 533.255 343.818 533.035 343.89C532.815 343.961 532.582 343.98 532.353 343.944C532.125 343.908 531.908 343.819 531.721 343.684L528.919 341.676C528.604 341.45 528.213 341.356 527.83 341.417C527.447 341.478 527.103 341.688 526.874 342.001L524.829 344.776C524.692 344.963 524.514 345.115 524.308 345.22C524.102 345.324 523.874 345.379 523.643 345.379C523.412 345.379 523.184 345.324 522.978 345.22C522.772 345.115 522.593 344.963 522.457 344.776L520.413 342.001C520.184 341.688 519.84 341.479 519.457 341.418C519.074 341.357 518.683 341.451 518.369 341.678L515.567 343.685C515.379 343.821 515.162 343.91 514.934 343.946C514.705 343.982 514.471 343.964 514.251 343.892C514.031 343.821 513.831 343.698 513.667 343.534C513.504 343.371 513.381 343.171 513.309 342.951L512.223 339.681C512.102 339.312 511.84 339.006 511.494 338.83C511.149 338.654 510.747 338.622 510.378 338.741L507.093 339.785C506.873 339.856 506.639 339.874 506.411 339.837C506.182 339.801 505.966 339.711 505.779 339.575C505.592 339.439 505.439 339.261 505.334 339.055C505.229 338.849 505.174 338.621 505.173 338.39L505.15 334.943C505.15 334.553 504.995 334.18 504.72 333.904C504.444 333.629 504.071 333.474 503.681 333.474L500.235 333.451C500.004 333.45 499.776 333.395 499.57 333.29C499.364 333.185 499.186 333.032 499.05 332.845C498.915 332.658 498.825 332.442 498.788 332.213C498.752 331.985 498.77 331.751 498.841 331.531L499.884 328.246C500.002 327.877 499.97 327.476 499.794 327.13C499.618 326.785 499.312 326.523 498.944 326.402L495.673 325.315C495.454 325.243 495.254 325.12 495.091 324.957C494.927 324.793 494.805 324.594 494.733 324.374C494.662 324.154 494.643 323.92 494.679 323.692C494.715 323.463 494.804 323.247 494.939 323.059L496.945 320.256C497.172 319.941 497.265 319.55 497.205 319.167C497.144 318.784 496.935 318.441 496.622 318.212L493.846 316.167C493.66 316.031 493.508 315.853 493.403 315.646C493.299 315.44 493.244 315.213 493.244 314.981C493.244 314.75 493.299 314.522 493.403 314.316C493.508 314.11 493.66 313.932 493.846 313.796L496.622 311.75C496.935 311.521 497.144 311.177 497.205 310.794C497.265 310.411 497.172 310.02 496.945 309.706L494.938 306.904C494.802 306.716 494.713 306.499 494.677 306.271C494.641 306.043 494.66 305.809 494.732 305.589C494.803 305.369 494.926 305.17 495.089 305.006C495.252 304.842 495.452 304.72 495.672 304.648L498.956 303.569C499.324 303.447 499.629 303.186 499.805 302.841C499.981 302.495 500.014 302.095 499.895 301.725L498.851 298.44C498.78 298.22 498.762 297.986 498.799 297.758C498.835 297.53 498.925 297.313 499.061 297.126C499.197 296.939 499.375 296.787 499.581 296.681C499.787 296.576 500.015 296.521 500.246 296.521L503.693 296.497C504.083 296.497 504.456 296.343 504.732 296.067C505.007 295.792 505.162 295.418 505.162 295.029L505.185 291.582C505.186 291.351 505.241 291.123 505.346 290.917C505.451 290.711 505.603 290.533 505.79 290.397C505.977 290.261 506.194 290.171 506.422 290.134C506.651 290.098 506.885 290.116 507.105 290.187L510.39 291.231C510.759 291.35 511.16 291.318 511.506 291.141C511.851 290.965 512.113 290.66 512.234 290.291L513.321 287.019C513.393 286.8 513.516 286.6 513.679 286.436C513.843 286.273 514.043 286.151 514.262 286.079C514.482 286.008 514.716 285.989 514.944 286.025C515.173 286.06 515.389 286.15 515.577 286.285L518.371 288.295C518.686 288.522 519.077 288.616 519.46 288.555C519.843 288.495 520.187 288.285 520.416 287.972L522.461 285.197C522.598 285.01 522.776 284.858 522.982 284.753C523.188 284.649 523.416 284.594 523.647 284.594C523.878 284.594 524.106 284.648 524.312 284.753C524.518 284.857 524.697 285.009 524.833 285.195Z" fill="url(#paint0_linear_22210_17053)"/>
<path d="M520.348 326.677L509.674 316.008C509.401 315.733 509.248 315.361 509.248 314.973C509.248 314.586 509.401 314.214 509.674 313.939L511.29 312.323C511.565 312.051 511.936 311.898 512.324 311.898C512.711 311.898 513.082 312.051 513.358 312.323L521.204 320.169L536.255 305.122C536.53 304.849 536.902 304.695 537.29 304.695C537.678 304.695 538.049 304.849 538.325 305.122L539.94 306.737C540.213 307.012 540.366 307.384 540.366 307.771C540.366 308.158 540.213 308.53 539.94 308.805L522.073 326.671C521.845 326.9 521.535 327.029 521.212 327.03C520.889 327.031 520.578 326.904 520.348 326.677Z" fill="white"/>
<path d="M395.914 85.176H550.911C555.125 85.176 555.125 78.6406 550.911 78.6406H395.914C391.7 78.6406 391.7 85.176 395.914 85.176Z" fill="#E6E6E6"/>
<path d="M346.963 123.895H550.914C555.128 123.895 555.128 117.359 550.914 117.359H346.963C342.749 117.359 342.749 123.895 346.963 123.895Z" fill="#E6E6E6"/>
<path d="M346.963 162.621H550.914C555.128 162.621 555.128 156.086 550.914 156.086H346.963C342.749 156.086 342.749 162.621 346.963 162.621Z" fill="#E6E6E6"/>
<path d="M346.963 201.332H550.914C555.128 201.332 555.128 194.797 550.914 194.797H346.963C342.749 194.797 342.749 201.332 346.963 201.332Z" fill="#E6E6E6"/>
<path d="M346.963 240.051H550.914C555.128 240.051 555.128 233.516 550.914 233.516H346.963C342.749 233.516 342.749 240.051 346.963 240.051Z" fill="#E6E6E6"/>
<circle cx="228.427" cy="76.7137" r="1.86994" fill="#AEBBDC"/>
<circle cx="238.579" cy="76.7137" r="1.86994" fill="#AEBBDC"/>
<circle cx="249.747" cy="76.7137" r="1.86994" fill="#AEBBDC"/>
<circle cx="260.964" cy="76.7137" r="1.86994" fill="#AEBBDC"/>
<circle cx="271.116" cy="76.7137" r="1.86994" fill="#AEBBDC"/>
<circle cx="282.284" cy="76.7137" r="1.86994" fill="#AEBBDC"/>
<circle cx="228.427" cy="65.4871" r="1.86994" fill="#AEBBDC"/>
<circle cx="238.579" cy="65.4871" r="1.86994" fill="#AEBBDC"/>
<circle cx="249.747" cy="65.4871" r="1.86994" fill="#AEBBDC"/>
<circle cx="260.964" cy="65.4871" r="1.86994" fill="#AEBBDC"/>
<circle cx="271.116" cy="65.4871" r="1.86994" fill="#AEBBDC"/>
<circle cx="282.284" cy="65.4871" r="1.86994" fill="#AEBBDC"/>
<circle cx="228.427" cy="87.9324" r="1.86994" fill="#AEBBDC"/>
<circle cx="238.579" cy="87.9324" r="1.86994" fill="#AEBBDC"/>
<circle cx="249.747" cy="87.9324" r="1.86994" fill="#AEBBDC"/>
<circle cx="260.964" cy="87.9324" r="1.86994" fill="#AEBBDC"/>
<circle cx="271.116" cy="87.9324" r="1.86994" fill="#AEBBDC"/>
<circle cx="282.284" cy="87.9324" r="1.86994" fill="#AEBBDC"/>
<circle cx="195.893" cy="76.7137" r="1.86994" fill="#AEBBDC"/>
<circle cx="207.11" cy="76.7137" r="1.86994" fill="#AEBBDC"/>
<circle cx="217.263" cy="76.7137" r="1.86994" fill="#AEBBDC"/>
<circle cx="228.43" cy="76.7137" r="1.86994" fill="#AEBBDC"/>
<circle cx="195.893" cy="65.4871" r="1.86994" fill="#AEBBDC"/>
<circle cx="207.11" cy="65.4871" r="1.86994" fill="#AEBBDC"/>
<circle cx="217.263" cy="65.4871" r="1.86994" fill="#AEBBDC"/>
<circle cx="228.43" cy="65.4871" r="1.86994" fill="#AEBBDC"/>
<circle cx="195.893" cy="87.9324" r="1.86994" fill="#AEBBDC"/>
<circle cx="207.11" cy="87.9324" r="1.86994" fill="#AEBBDC"/>
<circle cx="217.263" cy="87.9324" r="1.86994" fill="#AEBBDC"/>
<circle cx="228.43" cy="87.9324" r="1.86994" fill="#AEBBDC"/>
<g filter="url(#filter1_d_22210_17053)">
<ellipse cx="306.939" cy="123.521" rx="52.4819" ry="52.4819" fill="#0092FF"/>
</g>
<path d="M296.624 113.062H296.06L295.006 118.334H297.678L296.624 113.062Z" fill="white"/>
<path d="M317.953 123.609C318.522 125.138 319.279 126.375 320.117 127.428C320.954 126.375 321.799 125.138 322.368 123.609H317.953Z" fill="white"/>
<path d="M325.468 109.023H309.101L312.514 136.408C312.574 137.528 312.268 138.582 311.537 139.408L305.758 146.013H325.468C327.648 146.013 329.422 144.239 329.422 142.059V113.065C329.422 110.885 327.648 109.023 325.468 109.023ZM325.468 123.608H325.116C324.366 126.014 323.177 127.897 321.941 129.381C322.909 130.266 323.945 130.992 324.974 131.805C325.542 132.26 325.634 133.088 325.179 133.657C324.725 134.225 323.893 134.317 323.327 133.862C322.208 132.979 321.158 132.24 320.109 131.277C319.059 132.24 318.097 132.979 316.979 133.862C316.412 134.317 315.58 134.225 315.127 133.657C314.671 133.088 314.764 132.26 315.331 131.805C316.361 130.992 317.308 130.266 318.276 129.381C317.04 127.897 315.939 126.014 315.189 123.608H314.837C314.109 123.608 313.519 123.019 313.519 122.29C313.519 121.562 314.109 120.972 314.837 120.972H318.791V119.655C318.791 118.926 319.38 118.337 320.109 118.337C320.837 118.337 321.427 118.926 321.427 119.655V120.972H325.468C326.197 120.972 326.786 121.562 326.786 122.29C326.786 123.019 326.197 123.608 325.468 123.608Z" fill="white"/>
<path d="M305.89 104.487C305.644 102.512 303.957 101.023 301.967 101.023H288.391C286.211 101.023 284.438 102.797 284.438 104.977V134.147C284.438 136.327 286.211 138.101 288.391 138.101C296.27 138.101 301.937 138.101 309.175 138.101C309.559 137.661 309.881 137.386 309.895 136.812C309.898 136.668 305.908 104.629 305.89 104.487ZM300.599 126.214C299.9 126.357 299.192 125.904 299.048 125.18L298.206 120.968H294.48L293.637 125.18C293.496 125.893 292.808 126.362 292.086 126.214C291.373 126.071 290.91 125.377 291.053 124.663L293.689 111.484C293.812 110.869 294.353 110.424 294.981 110.424H297.704C298.332 110.424 298.873 110.869 298.997 111.484L301.632 124.663C301.775 125.377 301.312 126.071 300.599 126.214Z" fill="white"/>
<path d="M299.84 140.734L300.066 142.543C300.217 143.754 301.021 144.988 302.345 145.605C304.843 142.856 303.332 144.519 306.769 140.734H299.84Z" fill="white"/>
<path d="M479.092 522.556H479.207C479.89 522.556 480.439 521.995 480.423 521.312L478.58 441.399L473.148 440.766L477.78 521.318C477.82 522.013 478.395 522.556 479.092 522.556Z" fill="#3662C1"/>
<path d="M510.74 522.556H510.856C511.538 522.556 512.087 521.995 512.072 521.312L510.228 441.399L504.797 440.766L509.428 521.318C509.468 522.013 510.043 522.556 510.74 522.556Z" fill="#BED2FA"/>
<path d="M423.408 522.556H423.292C422.61 522.556 422.061 521.995 422.076 521.312L423.921 441.399L429.351 440.766L424.72 521.318C424.68 522.013 424.105 522.556 423.408 522.556Z" fill="#3662C1"/>
<path d="M514.339 436.442V381.681C514.339 372.046 506.528 364.234 496.892 364.234H457.439C447.804 364.234 439.992 372.046 439.992 381.681V438.534L514.339 436.442Z" fill="#3662C1"/>
<path d="M432.924 445.09H507.745C511.387 445.09 514.34 442.138 514.34 438.495V436.445H432.924V445.09Z" fill="#BED2FA"/>
<path d="M423.912 445.09H481.31C483.514 445.09 485.3 443.304 485.3 441.101V440.435C485.3 438.231 483.514 436.445 481.31 436.445H423.912C421.708 436.445 419.922 438.232 419.922 440.435V441.101C419.922 443.304 421.708 445.09 423.912 445.09Z" fill="#7E9BD7"/>
<path d="M111.129 289.723C110.039 287.622 134.907 280.052 135.3 300.797C135.3 300.797 181.885 299.652 159.642 273.687C151.942 264.698 152.734 257.265 152.965 250.347C153.199 243.428 148.169 223.318 130.925 225.343C130.925 225.343 126.41 223.506 120.774 226.429C107.959 233.078 79.2501 297.374 111.129 289.723Z" fill="#0B0754"/>
<path d="M187.289 312.913C187.289 312.913 190.321 308.297 192.765 308.206C195.209 308.116 199.735 306.849 199.373 307.754C199.011 308.659 196.205 308.75 195.933 309.293C195.662 309.836 200.097 310.651 201.364 310.741C202.631 310.832 205.619 310.741 205.528 311.375C205.438 312.008 200.144 314.633 196.41 314.271C192.675 313.909 188.059 315.357 188.059 315.357L187.289 312.913Z" fill="#FC9290"/>
<path d="M143.436 314.409C143.436 314.409 145.084 317.673 148.074 321.423C151.677 325.936 157.233 331.15 164.209 332.179C167.541 332.67 170.799 331.953 173.794 330.623C173.802 330.619 173.805 330.619 173.805 330.619C182.277 326.859 188.647 318.21 188.647 318.21C190.141 314.137 187.697 311.376 187.697 311.376C187.697 311.376 170.59 315.223 168.961 314.409C167.331 313.594 157.827 286.215 155.565 282.774C153.301 279.334 145.589 277.547 145.589 277.547L143.436 314.409Z" fill="#FFDBC6"/>
<path d="M148.073 321.426C151.677 325.939 157.232 331.153 164.209 332.181C167.541 332.673 170.799 331.956 173.794 330.626C173.463 330.669 165.002 331.714 161.629 325.68C158.188 319.525 154.468 309.749 149.358 313.008C147.153 314.414 147.251 317.909 148.073 321.426Z" fill="#DAAA8E"/>
<path d="M79.6107 499.069C79.6107 499.069 74.3908 503.833 75.4091 507.218C76.4273 510.603 81.1383 512.859 81.7746 516.996C82.411 521.133 84.9576 523.39 87.2494 523.39C89.5412 523.39 98.1753 523.39 98.1753 523.39C98.1753 523.39 99.8624 520.478 95.7882 519.601C91.7139 518.723 90.1779 513.862 90.4324 509.348C90.6873 504.836 90.0505 498.818 90.0505 498.818L81.3931 496.812L79.6107 499.069Z" fill="#120E59"/>
<path d="M123.793 501.094C123.793 501.094 121.915 521.275 124.207 522.404L153.535 522.343C153.535 522.343 153.535 518.959 148.824 518.206C144.113 517.454 135.838 514.696 134.437 508.553C133.037 502.41 123.793 501.094 123.793 501.094Z" fill="#120E59"/>
<path d="M102.892 356.31C108.928 342.775 112.621 338.89 111.916 334.689C111.391 331.562 113.513 276.392 113.513 276.392C114.229 276.17 115.665 275.971 116.45 275.797C118.925 275.247 120.975 273.508 121.827 271.12C122.855 268.243 123.671 263.995 123.652 258.672L124.426 258.824L137.425 261.399C137.425 261.399 137.129 265.489 137.12 269.343C137.12 269.375 137.12 269.407 137.12 269.44C137.104 272.787 139.3 275.741 142.516 276.669C144.158 277.143 145.586 277.548 145.586 277.548C145.586 277.548 150.36 291.176 151.271 305.176C152.183 319.176 142.591 325.258 151.344 353.235C160.28 381.807 99.5587 363.789 102.892 356.31Z" fill="#FC9290"/>
<path d="M137.425 261.403C137.425 261.403 137.129 265.493 137.12 269.347C129.846 269.142 126.001 262.506 124.426 258.828L137.425 261.403Z" fill="#EA8888"/>
<path d="M139.855 265.049C139.855 265.049 122.644 265.333 122.633 254.612C122.621 243.892 120.392 236.708 131.38 236.073C142.368 235.439 144.507 239.528 145.382 243.105C146.256 246.682 144.332 264.699 139.855 265.049Z" fill="#FC9290"/>
<path d="M139.217 235.812C139.217 235.812 134.505 248.389 127.273 250.249C120.041 252.108 116.904 250.171 116.904 250.171C116.904 250.171 122.452 245.764 123.603 238.072C123.603 238.072 135.663 229.825 139.217 235.812Z" fill="#0B0754"/>
<path d="M138.049 236.832C138.049 236.832 141.543 238.139 142.981 240.687C144.388 243.179 145.586 246.48 145.308 250.529C145.308 250.529 148.858 241.98 144.868 237.144C140.638 232.016 138.049 236.832 138.049 236.832Z" fill="#0B0754"/>
<path d="M136.109 258.398C136.109 258.398 137.297 259.961 139.673 259.848C141.587 259.758 142.325 258.098 142.325 258.098C142.325 258.098 138.809 257.251 136.109 258.398Z" fill="#DDE8FD"/>
<path d="M101.231 300.796C101.231 300.796 100.794 306.958 101.231 314.352C101.522 319.254 106.48 325.819 107.183 327.443C108.948 331.516 110.938 332.179 110.938 332.179L126.338 335.953L131.752 337.278L148.827 332.179C148.827 332.179 156.604 310.471 153.481 298.252C150.358 286.033 145.587 277.547 145.587 277.547C145.587 277.547 131.654 291.189 113.512 276.391L101.231 300.796Z" fill="#FFDBC6"/>
<path d="M105.74 316.357C106.031 321.258 106.481 325.823 107.185 327.446C108.95 331.519 110.94 332.182 110.94 332.182L126.339 335.956L133.027 333.99C133.027 333.99 110.701 330.607 113.175 311.398L105.74 316.357Z" fill="#A83F3F"/>
<path d="M147.742 335.477C147.742 335.477 156.198 361.797 156.741 370.758C157.284 379.718 140.577 498.055 139.905 502.184C139.272 506.077 134.438 508.557 134.438 508.557C134.438 508.557 132.215 509.868 129.043 508.973C124.642 507.73 123.25 506.242 123.25 506.242C123.25 506.242 116.669 421.845 120.742 391.697C124.815 361.548 124.863 335.477 124.863 335.477L147.742 335.477Z" fill="#E75755"/>
<path d="M111.916 334.688C111.916 334.688 99.0175 351.994 97.8148 363.692C96.6126 375.391 95.9285 416.485 93.3663 427.89C90.8049 439.294 81.3926 461.242 81.3926 496.815C81.3926 496.815 82.3708 498.853 85.3917 499.939C86.3576 500.286 87.6518 500.623 88.9085 500.912C91.3999 501.483 93.9558 500.265 95.0926 497.976C101.456 485.164 121.726 443.841 122.765 435.264C123.501 429.193 129.901 389.018 143.861 365.444C147.213 359.784 141.805 337.277 141.805 337.277L111.916 334.688Z" fill="#ED6966"/>
<path d="M136.492 258.683C136.492 258.683 136.79 259.946 139.933 259.751C139.933 259.751 142.571 259.588 142.491 258.2C142.491 258.2 139.932 257.212 136.492 258.683Z" fill="white"/>
<path d="M149.092 331.414C149.092 331.414 145.697 334.099 138.954 334.235C130.899 334.397 110.94 332.182 110.94 332.182C110.94 332.182 110.053 334.66 110.089 337.276C110.089 337.276 134.466 343.424 148.59 338.174C148.59 338.174 150.411 334.746 149.092 331.414Z" fill="#120E59"/>
<path d="M137.211 337.011C137.211 334.717 138.86 332.852 140.886 332.852C142.913 332.852 144.562 334.718 144.562 337.011C144.562 339.305 142.913 341.171 140.886 341.171C138.86 341.171 137.211 339.305 137.211 337.011ZM138.429 337.011C138.429 338.634 139.531 339.954 140.886 339.954C142.241 339.954 143.344 338.634 143.344 337.011C143.344 335.389 142.241 334.069 140.886 334.069C139.531 334.069 138.429 335.389 138.429 337.011Z" fill="white"/>
<path d="M84.6722 336.151L109.648 357.898L139.417 323.71L114.441 301.963L84.6722 336.151Z" fill="#A03732"/>
<path d="M116.573 336.25C116.573 336.25 125.724 337.32 125.695 339.493C125.667 341.664 123.415 346.127 122.285 346.325C121.154 346.524 114.838 340.29 114.838 340.29L116.573 336.25Z" fill="#FC9290"/>
<path d="M113.514 276.391C113.514 276.391 101.296 277.247 96.6137 288.631C91.9302 300.016 83.0449 319.13 83.0449 322.346C83.0449 325.562 88.0083 335.474 114.664 341.173C114.664 341.173 117.422 338.273 117.254 335.979C117.254 335.979 100.615 321.687 100.66 320.017C100.744 316.857 103.387 312.686 117.997 298.072C121.968 294.099 113.514 276.391 113.514 276.391Z" fill="#FFDBC6"/>
<path d="M248.492 522.767H248.376C247.693 522.767 247.145 522.205 247.16 521.523L249.004 441.61L254.435 440.977L249.804 521.529C249.764 522.224 249.188 522.767 248.492 522.767Z" fill="#3662C1"/>
<path d="M216.844 522.767H216.728C216.045 522.767 215.496 522.205 215.512 521.523L217.356 441.61L222.787 440.977L218.156 521.529C218.115 522.224 217.54 522.767 216.844 522.767Z" fill="#BED2FA"/>
<path d="M304.176 522.767H304.292C304.974 522.767 305.523 522.205 305.507 521.523L303.664 441.61L298.232 440.977L302.864 521.529C302.904 522.224 303.48 522.767 304.176 522.767Z" fill="#3662C1"/>
<path d="M213.244 436.653V381.892C213.244 372.257 221.055 364.445 230.691 364.445H270.144C279.78 364.445 287.591 372.257 287.591 381.892V438.745L213.244 436.653Z" fill="#3662C1"/>
<path d="M294.659 445.301H219.839C216.196 445.301 213.244 442.348 213.244 438.706V436.656H294.659V445.301Z" fill="#BED2FA"/>
<path d="M303.671 445.301H246.273C244.069 445.301 242.283 443.515 242.283 441.311V440.646C242.283 438.442 244.069 436.656 246.273 436.656H303.671C305.875 436.656 307.661 438.442 307.661 440.646V441.311C307.661 443.515 305.874 445.301 303.671 445.301Z" fill="#3662C1"/>
<path d="M301.55 423.01C295.898 432.848 288.789 436.645 288.789 436.645H259.215C259.215 436.645 305.862 415.506 301.55 423.01Z" fill="#120E59"/>
<path d="M278.837 499.125C278.066 500.009 277.968 500.995 278.349 502.049C278.35 502.054 278.352 502.06 278.357 502.064C279.063 504.013 281.393 506.19 284.1 508.364C284.445 508.643 284.753 508.897 285.021 509.132C285.092 509.194 285.162 509.255 285.229 509.317C285.283 509.365 285.335 509.415 285.388 509.461C287.912 511.788 286.962 512.321 291.497 517.043C296.668 522.423 300.228 522.52 301.241 522.03C302.098 521.612 300.357 518.759 298.428 515.551C298.334 515.397 298.243 515.24 298.147 515.084C297.89 514.657 297.635 514.224 297.38 513.796C295.12 509.936 295.7 508.125 296.236 502.38C296.671 497.712 303.498 476.301 303.498 476.301L293.589 474.594C293.589 474.594 290.605 491.643 287.317 494.269C285.559 495.668 283.59 495.686 281.901 496.723C281.781 496.795 281.664 496.87 281.549 496.946C280.588 497.583 279.609 498.239 278.837 499.125Z" fill="#FC9290"/>
<path d="M278.837 499.12C278.066 500.004 277.968 500.99 278.349 502.045C278.35 502.049 278.352 502.055 278.357 502.059C279.221 504.006 281.493 506.172 284.109 508.339C284.451 508.623 284.753 508.884 285.021 509.127C285.092 509.189 285.162 509.25 285.229 509.312C285.283 509.36 285.335 509.41 285.388 509.456C287.912 511.783 286.962 512.316 291.497 517.038C296.668 522.418 300.228 522.515 301.241 522.025C302.098 521.607 300.357 518.754 298.428 515.546C297.421 515.177 292.745 513.278 289.21 508.754C286.097 504.781 284.02 499.676 281.9 496.719C281.781 496.791 281.663 496.865 281.549 496.941C280.588 497.578 279.609 498.235 278.837 499.12Z" fill="#120E59"/>
<path d="M358.74 492.936C359.352 495.995 363.712 495.485 368.583 494.294C373.455 493.104 372.297 494.519 379.229 493.752C386.162 492.984 388.262 490.399 388.474 489.368C388.663 488.453 385.237 488.131 381.563 487.707C381.101 487.656 380.637 487.598 380.172 487.541C376.024 487.021 372.986 484.343 369.218 482.145C365.649 480.062 360.322 471.578 360.322 471.578L350.814 472.331C350.814 472.331 355.804 479.909 357.733 483.204C358.868 485.142 358.808 487.705 358.667 489.683C358.593 490.759 358.523 491.859 358.74 492.936Z" fill="#FC9290"/>
<path d="M368.582 494.29C373.454 493.099 372.296 494.514 379.229 493.747C386.161 492.98 388.261 490.395 388.473 489.364C388.662 488.449 385.237 488.126 381.562 487.703L381.528 487.774C381.528 487.774 377.37 490.722 371.6 490.86C366.896 490.974 361.914 489.626 358.666 489.679C358.592 490.754 358.522 491.854 358.739 492.931C359.351 495.99 363.711 495.48 368.582 494.29Z" fill="#120E59"/>
<path d="M322.304 432.14L313.416 456.056L301.812 487.284C301.812 487.284 298.663 487.588 295.648 486.721C292.871 485.918 289.686 483.819 289.686 483.819C289.686 483.819 292.908 450.289 298.918 431.041C300.458 426.101 302.185 422.104 304.09 419.855C313.408 408.843 322.304 432.14 322.304 432.14Z" fill="#030231"/>
<path d="M313.267 394.159C307.444 392.281 290.837 394.693 274.154 397.958L270.661 392.197L234.626 389.383C234.626 389.383 222.735 415.752 229.245 432.554C230.202 435.024 232.103 436.608 235.344 436.659C235.345 436.661 235.869 436.658 235.87 436.659C235.87 436.659 257.317 436.647 264.281 436.647C282.202 436.647 302.207 424.329 304.795 423.811C309.031 422.963 310.726 431.435 314.962 440.331C319.197 449.226 354.779 479.725 354.779 479.725C354.779 479.725 360.248 479.779 362.507 478.932C364.936 478.021 365.825 476.837 365.825 476.837C365.825 476.837 326.398 398.395 313.267 394.159Z" fill="#120E59"/>
<path d="M269.244 287.267C264.628 284.843 257.604 284.515 256.463 284.362C242.808 282.526 234.59 302.368 234.107 308.381C233.216 319.462 227.353 321.152 219.102 328.092C202.557 342.008 207.409 358.178 216.456 364.186C221.884 367.791 231.452 364.186 231.452 364.186C231.587 364.28 257.619 349.634 270.45 342.568C289.686 339.833 281.007 293.444 269.244 287.267Z" fill="#120E59"/>
<path d="M259.693 336.551C259.75 336.588 253.38 338.762 249.121 336.876C245.113 335.105 242.078 328.513 242.138 328.509C243.96 328.425 245.962 326.832 247.503 316.375L248.279 316.654L261.329 321.35C261.329 321.35 260.384 325.537 259.772 329.524C259.257 332.871 258.981 336.078 259.693 336.551Z" fill="#FC9290"/>
<path d="M261.33 321.352C261.33 321.352 260.384 325.54 259.773 329.527C252.277 328.178 249.335 320.709 248.279 316.656L261.33 321.352Z" fill="#EB8D8D"/>
<path d="M263.274 325.51C263.274 325.51 245.419 323.113 247.082 312.017C248.746 300.92 247.561 293.138 259.032 294.198C270.503 295.259 272.078 299.825 272.424 303.664C272.769 307.503 267.962 325.848 263.274 325.51Z" fill="#FC9290"/>
<path d="M271.773 297.578C271.773 297.578 260.342 307.428 252.568 308.222C244.793 309.017 241.85 306.521 241.85 306.521C241.85 306.521 246.432 302.716 249.19 296.575C250.003 294.765 251.721 293.524 253.697 293.353C259.249 292.873 269.773 292.655 271.773 297.578Z" fill="#120E59"/>
<path d="M264.627 296.699C264.627 296.699 268.451 300.396 269.655 303.138C270.817 305.784 271.165 312.113 270.24 314.628C270.24 314.628 276.198 303.043 272.825 297.415C269.248 291.446 264.627 296.699 264.627 296.699Z" fill="#120E59"/>
<path d="M274.729 362.859C274.19 399.003 274.581 391.451 270.627 394.881C269.675 395.706 266.996 396.198 263.472 396.431C252.389 397.167 232.906 395.341 232.165 393.293C229.609 386.205 231.414 384.004 229.281 373.154C229.059 372 228.784 370.751 228.461 369.391C226.683 361.938 224.952 359.403 231.261 347.431C236.982 336.586 242.926 327.784 243.461 328.102C258.555 337.062 259.773 329.531 259.773 329.531C259.773 329.531 274.994 345.229 274.729 362.859Z" fill="white"/>
<path d="M313.416 456.054L301.812 487.282C301.812 487.282 298.663 487.586 295.648 486.719C292.871 485.916 289.686 483.817 289.686 483.817C289.686 483.817 292.908 450.286 298.918 431.039L313.416 456.054Z" fill="#120E59"/>
<path d="M259.773 329.523C259.773 329.523 275.306 332.157 277.13 338.844C278.953 345.532 289.686 384.845 289.686 384.845C289.686 384.845 281.79 386.264 278.143 382.617C274.495 378.969 265.45 348.774 265.45 348.774L259.773 329.523Z" fill="white"/>
<path d="M263.472 396.432C252.389 397.167 232.907 395.341 232.166 393.293C229.609 386.206 231.414 384.004 229.281 373.154L234.626 358.102C234.626 358.102 233.743 374.863 238.686 379.273C243.624 383.681 258.925 387.783 261.329 391.466C262.487 393.235 263.249 395.008 263.472 396.432Z" fill="#B8C5E7"/>
<path d="M250.773 389.38C250.773 389.38 261.707 386.945 263.472 387.916C265.236 388.887 269.547 392.42 270.088 393.65C270.627 394.88 266.16 392.716 264.707 392.327C263.766 392.074 261.288 392.935 260.063 393.344C254.902 395.064 251.74 394.179 251.74 394.179L250.773 389.38Z" fill="#FC9290"/>
<path d="M243.451 328.094C243.451 328.094 228.769 328.998 223.687 336.086C216.533 346.065 202.34 388.591 210.474 394.263C219.634 400.65 252.163 395.933 252.163 395.933C252.163 395.933 253.245 390.874 251.739 388.426C250.233 385.979 225.757 382.025 224.628 380.895C223.498 379.766 238.749 358.868 238.749 355.479C238.749 352.09 243.451 328.094 243.451 328.094Z" fill="white"/>
<path d="M264 390.961C264 390.961 266.291 393.916 267.042 394.269C267.793 394.622 268.278 394.533 268.278 394.533L266.734 391.755L264 390.961Z" fill="#FC9290"/>
<path d="M263.471 387.914L270.132 391.149C270.132 391.149 269.848 391.612 269.028 391.575C268.208 391.537 266.139 390.781 266.139 390.781L263.471 387.914Z" fill="#FC9290"/>
<path d="M267.043 398.789H319.732L335.583 359.375H282.974L267.043 398.789Z" fill="#ED6966"/>
<path d="M320.35 397.258H250.773V398.794H319.732L320.35 397.258Z" fill="#E75755"/>
<path d="M306.431 379.079C306.828 377.694 306.027 376.57 304.642 376.57C303.257 376.57 301.811 377.694 301.414 379.079C301.017 380.464 301.818 381.588 303.203 381.588C304.589 381.588 306.034 380.464 306.431 379.079Z" fill="white"/>
<path d="M542.234 524.229H542.388C543.291 524.229 544.016 523.443 543.995 522.487L541.558 410.598L534.375 409.711L540.5 522.495C540.553 523.469 541.314 524.229 542.234 524.229Z" fill="white"/>
<path d="M251.035 524.229H250.882C249.979 524.229 249.253 523.443 249.274 522.487L251.712 410.598L258.895 409.711L252.77 522.495C252.717 523.469 251.956 524.229 251.035 524.229Z" fill="#BED2FA"/>
<path d="M549.704 412.658H244.771C241.602 412.658 239.033 410.089 239.033 406.92V404.894C239.033 401.725 241.602 399.156 244.771 399.156H549.703C552.872 399.156 555.441 401.725 555.441 404.894V406.92C555.441 410.089 552.872 412.658 549.704 412.658Z" fill="#BED2FA"/>
<path d="M449.135 399.157H396.445L380.596 359.742H433.204L449.135 399.157Z" fill="#12123C"/>
<path d="M395.828 397.625H465.405V399.161H396.445L395.828 397.625Z" fill="#12123C"/>
<path d="M409.746 379.446C409.349 378.06 410.15 376.938 411.535 376.938C412.921 376.938 414.366 378.06 414.763 379.446C415.161 380.832 414.359 381.955 412.974 381.955C411.589 381.955 410.143 380.832 409.746 379.446Z" fill="white"/>
<path d="M530.66 509.607C530.66 509.607 531.459 522.799 529.055 522.99C528.736 523.015 516.866 523.015 516.866 523.015L501.715 522.92C501.715 522.92 501.813 518.998 506.242 518.157C510.671 517.317 518.451 514.288 519.768 507.511C521.085 500.735 530.66 509.607 530.66 509.607Z" fill="#163560"/>
<path d="M501.813 509.607C501.813 509.607 502.611 522.799 500.207 522.99C499.888 523.015 488.018 523.015 488.018 523.015L472.867 522.92C472.867 522.92 472.965 518.998 477.394 518.157C481.824 517.317 489.604 514.288 490.92 507.511C492.237 500.735 501.813 509.607 501.813 509.607Z" fill="#163560"/>
<path d="M565.115 413.988L578.392 418.566C578.392 418.566 586.841 401.367 588.9 399.031C591.248 396.366 592.934 375.859 593.996 357.313C594.923 341.092 595.377 326.367 595.377 326.367C595.377 326.367 590.858 327.395 587.906 335.027C582.863 348.107 582.885 373.649 580.061 386.819C578.45 394.402 567.85 412.909 565.115 413.988Z" fill="#699DEE"/>
<path d="M578.385 418.558C583.447 412.675 586.834 401.359 588.893 399.023C591.241 396.359 602.341 381.216 591.975 357.406C586.887 372.464 591.135 380.659 589.535 389.559C587.941 398.387 578.847 412.675 578.385 418.558Z" fill="#3B76CA"/>
<path d="M616.725 517.173C616.725 517.173 617.966 518.277 620.907 518.277C624.241 518.277 625.09 517.173 625.09 517.173V470.359H616.725V517.173Z" fill="#2A2659"/>
<path d="M570.689 451.337C570.689 451.371 570.689 451.407 570.703 451.443C570.972 453.401 571.372 455.339 571.902 457.243C572.669 460.118 573.806 462.882 575.283 465.465C579.816 473.108 588.408 481.613 609.014 484.389C610.011 484.521 611.042 484.647 612.095 484.754C614.017 484.95 616.039 485.096 618.161 485.193H618.567C618.701 485.193 618.847 485.193 618.973 485.207C624.966 485.059 631.672 483.961 639.144 482.185C654.496 478.543 664.498 471.046 670.824 461.924C671.358 461.149 671.87 460.363 672.359 459.568C673.606 457.514 674.705 455.374 675.648 453.163C679.161 444.958 680.506 436.113 680.632 427.91C680.54 421.224 679.643 414.573 677.962 408.101C676.95 404.233 675.301 400.562 673.082 397.237C672.505 396.377 671.882 395.548 671.216 394.754C669.1 392.19 666.537 390.03 663.652 388.378C656.318 384.198 632.199 380.035 611.768 390.818C574.163 410.661 568.506 435.175 570.689 451.337Z" fill="#E57970"/>
<path d="M577.011 468.103C583.009 475.084 588.41 482.237 609.016 484.528C610.013 484.638 611.044 484.741 612.097 484.825C614.019 484.991 616.042 485.106 618.163 485.19C618.297 485.19 618.443 485.19 618.569 485.19C618.695 485.19 618.849 485.19 618.975 485.204C624.968 485.055 631.674 483.957 639.146 482.181C654.498 478.539 664.5 471.042 670.826 461.92C671.36 461.145 671.872 460.36 672.361 459.564C660.712 456.785 635.835 451.913 611.117 453.902C597.709 454.983 583.799 456.177 571.895 457.228C571.503 457.27 575.033 465.803 577.011 468.103Z" fill="#C65447"/>
<path d="M647.56 345.694C647.374 344.904 647.169 344.126 646.947 343.361C644.002 332.945 639.203 325.395 631.662 324.156C630.718 326.734 621.487 331.014 613.407 330.6C612.516 330.555 611.202 329.345 611.185 329.339C604.806 328.44 601.772 325.022 602.072 324.56C601.792 324.582 595.373 326.383 595.373 326.383C589.793 350.785 589.126 364.344 595.841 399.145C598.293 411.855 594.544 418.756 595.373 419.596C596.827 421.053 612.903 421.47 625.826 421.972C627.375 422.028 628.908 422.084 630.398 422.131C639.848 422.442 647.628 422.552 647.628 422.552C648.269 421.75 649.451 414.377 650.255 403.991C651.547 387.401 651.886 363.145 647.56 345.694Z" fill="#699DEE"/>
<path d="M627.224 325.326L619.542 331.691L607.84 329.884C607.949 328.764 608.532 323.872 609.033 319.706C609.445 316.303 609.804 313.381 609.804 313.381L623.781 307.777L624.201 307.609C624.201 307.679 624.201 307.749 624.201 307.819C624.162 308.38 624.136 308.927 624.125 309.461C623.876 319.026 627.224 325.326 627.224 325.326Z" fill="#E49963"/>
<path d="M594.966 456.777C555.851 459.579 543.676 459.077 542.298 460.957C533.66 472.791 532.789 474.833 515.274 498.543C511.932 503.067 507.99 508.376 503.261 514.696H484.973C484.973 514.696 504.704 477.049 520.479 451.544C526.704 441.475 532.316 433.3 535.854 430.079C548.077 418.937 596.779 419.195 596.779 419.195C596.779 419.195 639.065 418.172 642.394 424.436C643.122 425.798 624.416 454.657 594.966 456.777Z" fill="#1C468A"/>
<path d="M594.964 456.777C555.849 459.579 543.673 459.077 542.295 460.957C533.658 472.791 532.787 474.833 515.271 498.543L520.477 451.544C526.702 441.475 532.313 433.3 535.852 430.079C548.075 418.937 596.776 419.195 596.776 419.195C596.776 419.195 639.063 418.172 642.391 424.436C643.119 425.798 624.414 454.657 594.964 456.777Z" fill="#163560"/>
<path d="M617.435 330.74L609.736 329.922C609.736 329.922 608.772 330.135 608.957 331.348C609.142 332.561 611.68 335.83 612.638 336.007C613.597 336.183 619.519 332.97 617.435 330.74Z" fill="#365DA4"/>
<path d="M646.016 430.929C646.016 430.929 644.714 454.616 615.261 456.731C576.146 459.533 568.078 458.614 565.52 461.006C552.944 472.773 561.256 475.252 531.778 514.692H513.266C513.266 514.692 535.863 439.855 546.1 430.89C558.527 420.014 609.299 419.194 609.299 419.194C609.299 419.194 643.139 416.588 646.467 422.852C647.187 424.211 646.016 430.929 646.016 430.929Z" fill="#1C468A"/>
<path d="M609.01 484.391C609.01 484.509 613.066 485.091 615.282 485.189C616.179 485.232 617.087 485.246 618.017 485.237H618.255H618.975C624.967 485.086 631.674 483.988 639.146 482.214C659.199 477.452 670.122 466.117 675.65 453.188C679.163 444.982 680.508 436.137 680.634 427.935C680.542 421.248 679.647 414.597 677.967 408.125C676.954 404.258 675.305 400.586 673.086 397.261C672.652 396.616 672.19 395.983 671.7 395.375C671.546 395.173 671.383 394.977 671.221 394.781C657.412 409.204 615.658 455.146 609.01 484.391Z" fill="#E57970"/>
<path d="M610.062 484.391C610.062 484.509 614.119 485.091 616.335 485.189C616.895 485.217 617.456 485.231 618.016 485.237H618.254H618.974C624.967 485.086 631.673 483.987 639.145 482.214C659.199 477.451 670.122 466.116 675.649 453.187C679.162 444.982 680.507 436.137 680.633 427.934C680.542 421.248 679.646 414.597 677.966 408.125C676.954 404.257 675.304 400.586 673.086 397.26C672.652 396.616 672.189 395.983 671.699 395.375C657.361 410.43 616.624 455.535 610.062 484.391Z" fill="#E57970"/>
<path d="M608.743 322.109C608.743 322.109 610.024 327.83 613.402 330.595L608.191 337.372C608.191 337.372 601.88 329.903 602.065 324.555C602.065 324.555 607.071 322.308 608.743 322.109Z" fill="#3B76CA"/>
<path d="M608.749 322.109C608.749 322.109 609.724 327.494 613.103 330.262L608.096 336.425C608.096 336.425 602.603 330.041 602.07 324.558C602.07 324.555 607.077 322.308 608.749 322.109Z" fill="#699DEE"/>
<path d="M626.282 322.109C626.282 322.109 618.315 329.674 613.115 330.262L616.682 339.162C616.682 339.162 632.202 329.968 632.247 324.46C632.236 324.46 627.963 322.16 626.282 322.109Z" fill="#3B76CA"/>
<path d="M625.707 321.805C625.707 321.805 618.308 329.649 613.1 330.26L615.985 338.463C615.985 338.463 631.618 329.663 631.674 324.155C631.66 324.15 627.387 321.855 625.707 321.805Z" fill="#699DEE"/>
<path d="M650.252 403.996C649.448 414.381 649.663 419.808 646.458 422.862C646.458 422.862 639.97 425.302 630.394 422.136C627.125 420.455 624.573 418.169 623.309 415.026C617 399.357 629.008 386.332 629.618 375.953C630.229 365.573 639.743 357.992 639.743 357.992C639.743 357.992 651.543 387.403 650.252 403.996Z" fill="#3B76CA"/>
<path d="M613.827 335.106C613.827 335.106 615.287 348.876 615.545 353.484C616.276 366.444 616.542 405.394 616.542 405.394C616.542 405.394 616.926 408.795 614.657 411.507C613.255 413.171 611.702 414.7 610.017 416.076C610.017 416.076 606.686 413.163 605.364 407.688C604.487 404.046 606.597 373.459 608.726 353.086C609.363 346.957 610.31 340.863 611.564 334.829C611.564 334.829 613.301 334.526 613.827 335.106Z" fill="#365DA4"/>
<path d="M668.247 522.962H576.746C581.102 513.437 599.932 506.273 622.501 506.273C645.07 506.273 663.902 513.437 668.247 522.962Z" fill="#F1A34F"/>
<path d="M621.172 406.055C621.172 406.055 614.967 407.682 612.93 408.8C610.893 409.918 606.812 415.289 607.728 416.129C612.325 420.331 613.034 415.67 618.679 414.143C619.704 413.863 624.428 408.598 624.428 408.598L621.172 406.055Z" fill="#E49963"/>
<path d="M616.128 419.041L606.81 386.82H553.559L563.173 420.346H563.356H616.506H633.077V419.041H616.128Z" fill="#E4EDFC"/>
<path d="M580.103 403.041C579.767 401.862 580.448 400.906 581.625 400.906C582.801 400.906 584.034 401.862 584.373 403.041C584.712 404.22 584.028 405.173 582.849 405.173C581.67 405.173 580.442 404.218 580.103 403.041Z" fill="#1C468A"/>
<path d="M631.663 324.148C631.663 324.148 642.236 325.869 647.529 331.365C652.821 336.862 661.774 381.835 659.536 388.141C657.297 394.447 639.39 407.273 626.567 412.562C626.567 412.562 620.258 409.713 619.844 404.83C619.844 404.83 641.62 386.513 642.637 381.63C643.654 376.747 631.663 324.148 631.663 324.148Z" fill="#699DEE"/>
<path d="M624.182 307.827C624.142 308.387 624.117 308.934 624.106 309.468C621.4 312.385 615.043 318.601 609.025 319.702C609.437 316.299 609.796 313.377 609.796 313.377L623.773 307.773L624.182 307.827Z" fill="#D68D5D"/>
<path d="M608.346 314.502C608.346 314.502 625.11 315.267 625.435 304.823C625.76 294.379 628.13 287.454 617.44 286.509C606.749 285.565 604.553 289.501 603.597 292.953C602.642 296.404 603.995 314.035 608.346 314.502Z" fill="#E49963"/>
<path d="M625.429 304.817C625.429 304.817 624.177 290.876 609.245 291.369C594.313 291.863 600.773 277.746 613.604 275.664C613.604 275.664 612.265 280.64 620.328 281.427C637.277 283.097 626.937 302.615 625.429 304.817Z" fill="#1C468A"/>
<path d="M199.648 132.213L152.229 141.542C150.133 141.955 148.768 143.988 149.18 146.085L161.592 209.173C162.005 211.269 164.038 212.635 166.134 212.222L213.554 202.893C215.65 202.481 217.015 200.447 216.603 198.351L204.191 135.262C203.778 133.166 201.745 131.801 199.648 132.213Z" fill="#F7C78F"/>
<path d="M194.391 149.238L163.561 155.303C162.503 155.511 161.815 156.537 162.023 157.594L162.193 158.459C162.401 159.516 163.427 160.204 164.484 159.996L195.314 153.931C196.372 153.723 197.06 152.697 196.852 151.64L196.682 150.775C196.474 149.718 195.448 149.03 194.391 149.238Z" fill="#E2923D"/>
<path d="M196.739 161.245L165.908 167.311C164.851 167.519 164.163 168.544 164.371 169.602L164.541 170.467C164.749 171.524 165.774 172.212 166.832 172.004L197.662 165.939C198.719 165.731 199.407 164.705 199.2 163.648L199.029 162.783C198.821 161.726 197.796 161.038 196.739 161.245Z" fill="#E2923D"/>
<path d="M199.114 173.253L168.283 179.319C167.226 179.527 166.538 180.552 166.746 181.609L166.916 182.474C167.124 183.532 168.149 184.22 169.206 184.012L200.037 177.947C201.094 177.739 201.782 176.713 201.575 175.656L201.404 174.791C201.196 173.734 200.171 173.045 199.114 173.253Z" fill="#E2923D"/>
<path d="M185.081 188.486L170.645 191.327C169.587 191.535 168.899 192.56 169.107 193.617L169.277 194.482C169.485 195.539 170.511 196.228 171.568 196.02L186.004 193.18C187.062 192.972 187.75 191.946 187.542 190.889L187.372 190.024C187.164 188.967 186.138 188.278 185.081 188.486Z" fill="#E2923D"/>
<defs>
<filter id="filter0_d_22210_17053" x="290.891" y="15.5547" width="324.391" height="429.227" filterUnits="userSpaceOnUse" color-interpolation-filters="sRGB">
<feFlood flood-opacity="0" result="BackgroundImageFix"/>
<feColorMatrix in="SourceAlpha" type="matrix" values="0 0 0 0 0 0 0 0 0 0 0 0 0 0 0 0 0 0 127 0" result="hardAlpha"/>
<feOffset dy="10"/>
<feGaussianBlur stdDeviation="12"/>
<feComposite in2="hardAlpha" operator="out"/>
<feColorMatrix type="matrix" values="0 0 0 0 0.258824 0 0 0 0 0.411765 0 0 0 0 0.584314 0 0 0 0.1 0"/>
<feBlend mode="normal" in2="BackgroundImageFix" result="effect1_dropShadow_22210_17053"/>
<feBlend mode="normal" in="SourceGraphic" in2="effect1_dropShadow_22210_17053" result="shape"/>
</filter>
<filter id="filter1_d_22210_17053" x="234.457" y="56.0391" width="144.963" height="144.961" filterUnits="userSpaceOnUse" color-interpolation-filters="sRGB">
<feFlood flood-opacity="0" result="BackgroundImageFix"/>
<feColorMatrix in="SourceAlpha" type="matrix" values="0 0 0 0 0 0 0 0 0 0 0 0 0 0 0 0 0 0 127 0" result="hardAlpha"/>
<feOffset dy="5"/>
<feGaussianBlur stdDeviation="10"/>
<feComposite in2="hardAlpha" operator="out"/>
<feColorMatrix type="matrix" values="0 0 0 0 0.027451 0 0 0 0 0.109804 0 0 0 0 0.301961 0 0 0 0.07 0"/>
<feBlend mode="normal" in2="BackgroundImageFix" result="effect1_dropShadow_22210_17053"/>
<feBlend mode="normal" in="SourceGraphic" in2="effect1_dropShadow_22210_17053" result="shape"/>
</filter>
<linearGradient id="paint0_linear_22210_17053" x1="504.869" y1="292.29" x2="543.209" y2="338.598" gradientUnits="userSpaceOnUse">
<stop stop-color="#7687F5"/>
<stop offset="0.34" stop-color="#6272DC"/>
<stop offset="1" stop-color="#3342A1"/>
</linearGradient>
</defs>
</svg>
